<svg width="106" height="68" viewBox="0 0 106 68" fill="none" xmlns="http://www.w3.org/2000/svg">
<path d="M7.0104 0.257812H88.1296L81.7774 9.09938H0.658203L7.0104 0.257812Z" fill="black"/>
<path d="M90.276 29.6133H105.126L98.7742 38.4548H83.9238L90.276 29.6133Z" fill="black"/>
<path d="M82.7217 9.6151L88.988 0.859375V29.7018L82.7217 38.4575V9.6151Z" fill="black"/>
<path d="M99.7188 38.8885L105.985 30.1328V58.8894L99.7188 67.6451V38.8885V38.8885Z" fill="black"/>
<path fill-rule="evenodd" clip-rule="evenodd" d="M88.7308 48.1585C87.8724 47.2143 86.5848 46.6992 85.1255 46.6992C83.237 46.6992 81.7778 47.4718 80.4901 49.0169C79.2884 50.562 78.6875 52.4505 78.6875 54.6824C78.6875 56.3992 79.1167 57.7726 80.0609 58.7169C80.9194 59.6611 82.207 60.0903 83.5804 60.0903C84.4388 60.0903 85.2114 59.9186 85.9839 59.5753C86.7565 59.2319 87.4432 58.7169 88.1299 57.9443C89.4176 56.485 90.1043 54.5107 90.1901 52.0213C90.1043 50.3904 89.5892 49.0169 88.7308 48.1585Z" fill="black"/>
<path fill-rule="evenodd" clip-rule="evenodd" d="M46.3256 18.5413C45.4672 17.5971 44.1795 17.082 42.7203 17.082C40.8318 17.082 39.3725 17.8546 38.0849 19.3997C36.8831 20.9449 36.2822 22.8333 36.2822 25.0652C36.2822 26.782 36.7973 28.1554 37.6557 29.0997C38.5141 30.0439 39.8017 30.559 41.1751 30.559C42.0335 30.559 42.8061 30.3873 43.5787 30.0439C44.3512 29.7006 45.038 29.1855 45.7247 28.413C47.0123 26.9537 47.699 24.9794 47.699 22.4041C47.699 20.7732 47.2698 19.3997 46.3256 18.5413Z" fill="black"/>
<path fill-rule="evenodd" clip-rule="evenodd" d="M21.2601 18.5413C20.4017 17.5971 19.1141 17.082 17.6548 17.082C15.8522 17.082 14.3071 17.8546 13.0194 19.3997C11.8177 20.9449 11.2168 22.8333 11.2168 25.0652C11.2168 26.782 11.7318 28.1554 12.5902 29.0997C13.4486 30.0439 14.7363 30.559 16.1097 30.559C16.9681 30.559 17.7407 30.3873 18.5132 30.0439C19.2858 29.7006 19.9725 29.1855 20.6592 28.413C21.9469 26.9537 22.6336 24.9794 22.6336 22.4041C22.6336 20.7732 22.1185 19.3997 21.2601 18.5413Z" fill="black"/>
<path fill-rule="evenodd" clip-rule="evenodd" d="M46.3256 18.5413C45.4672 17.5971 44.1795 17.082 42.7203 17.082C40.8318 17.082 39.3725 17.8546 38.0849 19.3997C36.8831 20.9449 36.2822 22.8333 36.2822 25.0652C36.2822 26.782 36.7973 28.1554 37.6557 29.0997C38.5141 30.0439 39.8017 30.559 41.1751 30.559C42.0335 30.559 42.8061 30.3873 43.5787 30.0439C44.3512 29.7006 45.038 29.1855 45.7247 28.413C47.0123 26.9537 47.699 24.9794 47.699 22.4041C47.699 20.7732 47.2698 19.3997 46.3256 18.5413Z" fill="black"/>
<path fill-rule="evenodd" clip-rule="evenodd" d="M46.3256 18.5413C45.4672 17.5971 44.1795 17.082 42.7203 17.082C40.8318 17.082 39.3725 17.8546 38.0849 19.3997C36.8831 20.9449 36.2822 22.8333 36.2822 25.0652C36.2822 26.782 36.7973 28.1554 37.6557 29.0997C38.5141 30.0439 39.8017 30.559 41.1751 30.559C42.0335 30.559 42.8061 30.3873 43.5787 30.0439C44.3512 29.7006 45.038 29.1855 45.7247 28.413C47.0123 26.9537 47.699 24.9794 47.699 22.4041C47.699 20.7732 47.2698 19.3997 46.3256 18.5413Z" fill="black"/>
<path fill-rule="evenodd" clip-rule="evenodd" d="M72.0775 18.5413C71.1333 17.5971 69.9315 17.082 68.4722 17.082C66.5837 17.082 65.1244 17.8546 63.8368 19.3997C62.6351 20.9449 62.0342 22.8333 62.0342 25.0652C62.0342 26.782 62.4634 28.1554 63.4076 29.0997C64.266 30.0439 65.5536 30.559 66.9271 30.559C67.7855 30.559 68.5581 30.3873 69.3306 30.0439C70.1032 29.7006 70.7899 29.1855 71.4766 28.413C72.7642 26.9537 73.451 24.9794 73.451 22.4041C73.451 20.7732 72.9359 19.3997 72.0775 18.5413Z" fill="black"/>
<path fill-rule="evenodd" clip-rule="evenodd" d="M81.6916 39.4863V10.1289H0.658203V38.4563H2.54669L7.35376 16.1377C7.61128 15.1077 7.69712 14.0776 7.78296 13.1333C7.78296 12.79 8.12632 12.4466 8.46968 12.4466H12.59C13.0192 12.4466 13.2767 12.79 13.2767 13.1333C13.2767 13.6484 13.1909 14.1634 13.1909 14.5068L13.0192 15.451L13.6201 14.6784C14.221 13.82 15.0794 13.2192 16.1953 12.7041C17.3112 12.1891 18.513 11.9316 19.8006 11.9316C21.1741 11.9316 22.3758 12.1032 23.4059 12.6183C24.436 13.0475 25.3803 13.6484 26.067 14.5068C27.5263 16.2236 28.2988 18.4554 28.2988 21.2023C28.2988 25.3227 27.1829 28.6704 24.951 31.3315C22.805 33.9925 19.9723 35.2802 16.6245 35.2802C14.9936 35.2802 13.6201 35.0226 12.4183 34.4218C11.2166 33.8209 10.3582 33.0483 9.84313 32.1041L9.67145 31.589L8.12632 38.4563H46.2395V67.5562H70.1031L74.7385 45.6668C74.996 44.6368 75.0819 43.6067 75.1677 42.6624C75.1677 42.3191 75.5111 41.9757 75.8544 41.9757H80.0606C80.4898 41.9757 80.7473 42.3191 80.7473 42.6624C80.7473 43.1775 80.6615 43.6925 80.6615 44.0359L80.4898 44.9801L81.0907 44.2076C81.6916 43.3492 82.55 42.7483 83.6659 42.2332C84.7818 41.7182 85.9836 41.4607 87.2712 41.4607C88.6447 41.4607 89.8464 41.6323 90.8765 42.1474C91.9066 42.5766 92.8508 43.1775 93.5376 44.0359C94.9969 45.7527 95.7694 47.9845 95.8553 50.7314C95.8553 54.8518 94.7393 58.1996 92.5075 60.8606C90.3615 63.5217 87.5287 64.8093 84.181 64.8093C82.55 64.8093 81.1765 64.4659 79.9748 63.9509C78.773 63.35 77.9146 62.5774 77.3996 61.719L77.0562 61.204L75.7686 67.642H98.7738V39.4863H81.6916ZM40.8315 35.7094C37.8271 35.7094 35.3377 34.6793 33.4493 32.7908C31.6466 30.8165 30.6165 28.3271 30.6165 25.3227C30.6165 21.4598 31.8183 18.2837 34.2218 15.7944C36.6253 13.305 39.6298 12.0174 43.1492 12.0174C44.6944 12.0174 46.0678 12.2749 47.2696 12.79C48.4713 13.305 49.5873 13.9917 50.5315 15.0218C52.3342 16.9961 53.2784 19.4855 53.2784 22.4899C53.2784 26.0952 52.0766 29.2713 49.7589 31.9324C47.4412 34.3359 44.4368 35.7094 40.8315 35.7094ZM75.8544 31.4173C73.7084 34.0784 70.8757 35.366 67.5279 35.366C65.8969 35.366 64.5235 35.0226 63.3217 34.5076C62.12 33.9067 61.2616 33.1341 60.7465 32.1899L60.489 31.6749L58.9439 38.4563L55.3386 54.0792C55.1669 55.0235 54.9952 55.796 54.9952 56.3111C54.9952 57.427 55.3386 58.2854 55.8536 58.9721C56.4545 59.6588 57.3987 60.0022 58.6005 60.0022C59.8881 60.0022 60.9182 59.4872 61.7766 58.6288C62.635 57.7703 63.2359 56.5686 63.4934 55.1093L66.3261 42.5766C66.412 42.2332 66.6695 42.0616 67.0129 42.0616H71.219C71.6482 42.0616 71.9916 42.4908 71.9058 42.92L68.3005 59.9164C67.9571 61.4615 67.7854 62.8349 67.7854 64.1225C67.7854 64.2942 67.6138 64.3801 67.5279 64.3801H62.9784C62.635 64.3801 62.3775 64.1225 62.3775 63.7792V63.6075C62.3775 63.1783 62.3775 62.8349 62.3775 62.4057V62.2341L62.4633 61.2898L61.9483 62.0624C61.3474 62.9208 60.5748 63.6075 59.5447 64.1225C58.5147 64.6376 57.4846 64.8093 56.4545 64.8093C54.1368 64.8093 52.42 64.1225 51.1324 62.8349C49.9306 61.4615 49.2439 59.7447 49.2439 57.5987C49.2439 56.8261 49.4156 55.7102 49.7589 54.2509C50.789 49.873 52.2483 43.6067 53.4501 38.3704C54.3943 34.0784 55.3386 29.7864 56.1111 26.1811L56.3687 25.0651L56.5403 24.2926C57.3129 20.6014 57.9138 17.7687 58.1713 16.7386C58.4288 15.2793 58.6863 14.0776 58.6863 13.0475C58.6863 12.7041 59.0297 12.3608 59.3731 12.3608H63.4934C63.9226 12.3608 64.1801 12.7041 64.1801 13.0475C64.1801 13.5625 64.0943 14.0776 64.0943 14.4209L63.9226 15.3652L64.5235 14.5926C65.1244 13.7342 65.9828 13.1333 67.0987 12.6183C68.2146 12.1032 69.4164 11.8457 70.704 11.8457C72.0775 11.8457 73.2792 12.0174 74.3093 12.5324C75.3394 12.9616 76.2836 13.5625 76.9704 14.4209C78.4296 16.1377 79.2022 18.3696 79.2022 21.1165C79.1164 25.3227 78.0004 28.7563 75.8544 31.4173Z" fill="black"/>
</svg>
